<?xml version="1.0" encoding="UTF-8"?>
<svg width="210px" height="210px" viewBox="0 0 210 210" version="1.1" xmlns="http://www.w3.org/2000/svg" xmlns:xlink="http://www.w3.org/1999/xlink">
    <!-- Generator: Sketch 48.2 (47327) - http://www.bohemiancoding.com/sketch -->
    <title>Logo</title>
    <desc>Created with Sketch.</desc>
    <defs>
        <filter x="-4.7%" y="-3.6%" width="109.4%" height="110.2%" filterUnits="objectBoundingBox" id="filter-1">
            <feOffset dx="0" dy="2" in="SourceAlpha" result="shadowOffsetOuter1"></feOffset>
            <feGaussianBlur stdDeviation="2" in="shadowOffsetOuter1" result="shadowBlurOuter1"></feGaussianBlur>
            <feColorMatrix values="0 0 0 0 0   0 0 0 0 0   0 0 0 0 0  0 0 0 0.5 0" type="matrix" in="shadowBlurOuter1" result="shadowMatrixOuter1"></feColorMatrix>
            <feMerge>
                <feMergeNode in="shadowMatrixOuter1"></feMergeNode>
                <feMergeNode in="SourceGraphic"></feMergeNode>
            </feMerge>
        </filter>
        <linearGradient x1="0%" y1="0%" x2="101.999998%" y2="100.999999%" id="linearGradient-2">
            <stop stop-color="#382152" offset="0%"></stop>
            <stop stop-color="#6D1C6D" offset="100%"></stop>
        </linearGradient>
        <filter x="-13.0%" y="-9.4%" width="126.0%" height="123.5%" filterUnits="objectBoundingBox" id="filter-3">
            <feOffset dx="0" dy="2" in="SourceAlpha" result="shadowOffsetOuter1"></feOffset>
            <feGaussianBlur stdDeviation="2" in="shadowOffsetOuter1" result="shadowBlurOuter1"></feGaussianBlur>
            <feColorMatrix values="0 0 0 0 0   0 0 0 0 0   0 0 0 0 0  0 0 0 0.5 0" type="matrix" in="shadowBlurOuter1" result="shadowMatrixOuter1"></feColorMatrix>
            <feMerge>
                <feMergeNode in="shadowMatrixOuter1"></feMergeNode>
                <feMergeNode in="SourceGraphic"></feMergeNode>
            </feMerge>
        </filter>
        <path d="M2.85868536,27.6752132 C2.85868536,24.1054001 4.76166805,20.8063067 7.8517956,19.0189407 L33.1253948,4.40039395 C36.2177667,2.61172969 40.0294459,2.60856321 43.1247853,4.39208714 L52.168396,9.60298445 C52.3209311,9.69087465 52.447561,9.81747492 52.5354869,9.96998942 C52.8113272,10.4484563 52.6470658,11.0599431 52.1685989,11.3357834 L18.807984,30.5684621 C18.4982747,30.7470122 18.307437,31.0773119 18.307437,31.4348031 L18.307437,39.3009422 C18.307437,39.4768306 18.2610454,39.6496077 18.1729432,39.8018403 C17.8963048,40.2798462 17.2845447,40.4430868 16.8065388,40.1664484 L10.9420546,36.7724703 C10.7898221,36.6843681 10.617045,36.6379765 10.4411565,36.6379765 C9.88887175,36.6379765 9.4411565,37.0856917 9.4411565,37.6379765 L9.4411565,58.0086745 C9.4411565,58.3667822 9.63264738,58.6975534 9.94319886,58.8758759 L17.8053946,63.390445 C18.1159461,63.5687675 18.307437,63.8995387 18.307437,64.2576464 L18.307437,69.772081 C18.307437,69.9480996 18.2609768,70.1209999 18.1727509,70.2733113 C17.895929,70.751211 17.2841063,70.9142167 16.8062066,70.6373949 L7.84638183,65.4474445 C4.75930645,63.6592658 2.85868536,60.3618842 2.85868536,56.7943056 L2.85868536,27.6752132 Z M22.6681724,73.4615405 L22.6681724,33.9626921 C22.6681724,33.6045063 22.859746,33.2736755 23.1704041,33.095382 L37.6035113,24.8119056 C37.9131026,24.6342243 38.2939303,24.6350398 38.6027579,24.8140454 L53.0408093,33.1827687 C53.349377,33.3616237 53.539331,33.6912835 53.539331,34.0479389 L53.539331,73.4650954 C53.539331,73.8227684 53.3483007,74.1532072 53.038343,74.3316904 L48.4938393,76.9485556 C48.015232,77.2241523 47.4038289,77.0595799 47.1282321,76.5809726 C47.0408302,76.4291886 46.9948272,76.2571105 46.9948272,76.0819606 L46.9948272,56.7348024 C46.9948272,56.1825177 46.5471119,55.7348024 45.9948272,55.7348024 C45.8185309,55.7348024 45.645368,55.7814092 45.4928888,55.8698991 L38.6258634,59.8551114 C38.3148196,60.0356226 37.930803,60.0352135 37.6201446,59.8540398 L30.797729,55.8752572 C30.3206479,55.597027 29.7083471,55.7582275 29.4301169,56.2353086 C29.3409382,56.3882233 29.2939487,56.5620699 29.2939487,56.739089 L29.2939487,76.0925321 C29.2939487,76.6448168 28.8462334,77.0925321 28.2939487,77.0925321 C28.1206025,77.0925321 27.9502334,77.0474712 27.7995544,76.9617699 L23.1737781,74.3307783 C22.8612221,74.1530065 22.6681724,73.8211154 22.6681724,73.4615405 Z M73.3729242,26.92075 L73.3729242,31.42772 C73.3729242,31.7828439 73.1845848,32.1113282 72.8781089,32.2907313 L65.0421383,36.8777079 C64.7356625,37.0571111 64.547323,37.3855953 64.547323,37.7407192 L64.547323,42.9859882 C64.547323,43.538273 64.9950383,43.9859882 65.547323,43.9859882 C65.7222196,43.9859882 65.8940577,43.9401182 66.0456874,43.8529559 L71.8745599,40.5023097 C72.353373,40.2270707 72.9646529,40.3921 73.2398919,40.8709131 C73.3270541,41.0225428 73.3729242,41.1943808 73.3729242,41.3692774 L73.3729242,56.7845798 C73.3729242,60.3549281 71.4693758,63.6544313 68.3785173,65.4416023 L59.4747524,70.5898648 C58.9966382,70.8663161 58.3849421,70.702836 58.1084908,70.2247218 C58.0205147,70.0725697 57.9741931,69.8999183 57.9741931,69.7241625 L57.9741931,64.4135795 C57.9741931,64.0559383 58.1651896,63.7255238 58.4751037,63.5470289 L66.2851086,59.0488606 C66.5950228,58.8703657 66.7860193,58.5399512 66.7860193,58.18231 L66.7860193,52.8504659 C66.7860193,52.2981811 66.338304,51.8504659 65.7860193,51.8504659 C65.6103745,51.8504659 65.4378281,51.896729 65.2857432,51.9845999 L59.4744691,55.3422108 C58.9962645,55.6185057 58.3846219,55.4548255 58.1083271,54.9766209 C58.0204562,54.8245361 57.9741931,54.6519896 57.9741931,54.4763449 L57.9741931,31.4953288 C57.9741931,31.1384612 57.784015,30.8086389 57.4751575,30.629861 L43.936798,22.7933643 C43.4588132,22.5166893 43.2956195,21.9049167 43.5722945,21.426932 C43.6599664,21.2754696 43.7858522,21.1496674 43.9373728,21.062096 L57.4740507,13.238569 C57.7835173,13.0597127 58.164916,13.059631 58.4744592,13.2383548 L68.9732856,19.3001604 C71.6958006,20.8720843 73.3729242,23.7770208 73.3729242,26.92075 Z" id="path-4"></path>
    </defs>
    <g id="Page-1" stroke="none" stroke-width="1" fill="none" fill-rule="evenodd">
        <g id="Logo">
            <g id="82--Polaroid--(Outline)" filter="url(#filter-1)" transform="translate(103.993892, 105.000000) rotate(-371.000000) translate(-103.993892, -105.000000) translate(29.493892, 36.500000)">
                <path d="M4.94247783,105.960328 L143.331857,105.960328 L143.331857,4.6069708 L4.94247783,4.6069708 L4.94247783,105.960328 Z M145.803096,110.567299 L2.47123891,110.567299 C1.10711503,110.567299 -1.86517468e-14,109.537641 -1.86517468e-14,108.263814 L-1.86517468e-14,2.3034854 C-1.86517468e-14,1.02965797 1.10711503,-6.39488462e-14 2.47123891,-6.39488462e-14 L145.803096,-6.39488462e-14 C147.16722,-6.39488462e-14 148.274335,1.02965797 148.274335,2.3034854 L148.274335,108.263814 C148.274335,109.537641 147.16722,110.567299 145.803096,110.567299 L145.803096,110.567299 Z" id="Fill-1094" fill="#FFFFFF"></path>
                <polygon id="Fill-1094" fill="url(#linearGradient-2)" points="4.94814246 105.963011 4.97126662 4.64181966 143.346441 4.61031241 143.335385 105.972246"></polygon>
                <path d="M143.331857,132.277882 L4.94247783,132.277882 L143.331857,132.277882 Z M2.47123891,136.754291 C1.10711503,136.754291 4.35207426e-14,135.753814 4.35207426e-14,134.516087 L4.35207426e-14,109.895838 C4.35207426e-14,108.658111 1.10711503,107.657633 2.47123891,107.657633 L145.803096,107.657633 C147.16722,107.657633 148.274335,108.658111 148.274335,109.895838 L148.274335,134.516087 C148.274335,135.753814 147.16722,136.754291 145.803096,136.754291 L2.47123891,136.754291 Z" id="Fill-1095" fill="#FFFFFF"></path>
            </g>
            <text id="GraphCMS-Image" transform="translate(115.506108, 156.762124) rotate(-11.000000) translate(-115.506108, -156.762124) " font-family="Quicksand-Regular, Quicksand" font-size="16" font-weight="normal" fill="#3B3B3B">
                <tspan x="50.5061078" y="162.762124">GraphCMS Image</tspan>
            </text>
            <g id="logo-final" filter="url(#filter-3)" transform="translate(102.694280, 91.608569) rotate(-11.000000) translate(-102.694280, -91.608569) translate(64.194280, 49.108569)">
                <path d="M43.8406685,0.203959552 L71.9564733,16.3422175 C75.5287437,18.3926735 77.7316096,22.1970617 77.7316096,26.3159798 L77.7316096,58.4916858 C77.7316096,62.6106039 75.5287437,66.4149922 71.9564733,68.4654482 L43.8406685,84.6037061 C40.295354,86.6386896 35.9362556,86.6386896 32.3909411,84.6037061 L4.27513633,68.4654482 C0.702865849,66.4149922 -1.5,62.6106039 -1.5,58.4916858 L-1.5,26.3159798 C-1.5,22.1970617 0.702865849,18.3926735 4.27513633,16.3422175 L32.3909411,0.203959552 C35.9362556,-1.83102395 40.295354,-1.83102395 43.8406685,0.203959552 Z" id="Path" stroke="#FFFFFF" stroke-width="3"></path>
                <mask id="mask-5" fill="white">
                    <use xlink:href="#path-4"></use>
                </mask>
                <use id="color-copy-5" fill="#639AE0" style="mix-blend-mode: multiply;" xlink:href="#path-4"></use>
                <g id="Group" mask="url(#mask-5)">
                    <g transform="translate(2.858685, 1.905790)">
                        <polygon id="Polygon-2" fill="#FFFFFF" points="35.3150618 0 70.6021586 20.3616716 35.2398094 40.7233432 0.0279650024 20.3616716"></polygon>
                        <polygon id="Polygon-2-Copy" fill="#E6E6E6" points="70.6021586 20.3616716 70.6021586 61.0850148 35.3150618 81.4466864 35.2398094 40.6256622"></polygon>
                        <polygon id="Polygon-2-Copy-2" fill="#D2D2D2" points="35.3150618 40.6934198 35.3150618 81.4466864 0.0279650024 61.0850148 0.0279650024 20.3616716"></polygon>
                    </g>
                </g>
                <path d="M2.85868536,27.6752132 C2.85868536,24.1054001 4.76166805,20.8063067 7.8517956,19.0189407 L33.1253948,4.40039395 C36.2177667,2.61172969 40.0294459,2.60856321 43.1247853,4.39208714 L52.168396,9.60298445 C52.3209311,9.69087465 52.447561,9.81747492 52.5354869,9.96998942 C52.8113272,10.4484563 52.6470658,11.0599431 52.1685989,11.3357834 L18.807984,30.5684621 C18.4982747,30.7470122 18.307437,31.0773119 18.307437,31.4348031 L18.307437,39.3009422 C18.307437,39.4768306 18.2610454,39.6496077 18.1729432,39.8018403 C17.8963048,40.2798462 17.2845447,40.4430868 16.8065388,40.1664484 L10.9420546,36.7724703 C10.7898221,36.6843681 10.617045,36.6379765 10.4411565,36.6379765 C9.88887175,36.6379765 9.4411565,37.0856917 9.4411565,37.6379765 L9.4411565,58.0086745 C9.4411565,58.3667822 9.63264738,58.6975534 9.94319886,58.8758759 L17.8053946,63.390445 C18.1159461,63.5687675 18.307437,63.8995387 18.307437,64.2576464 L18.307437,69.772081 C18.307437,69.9480996 18.2609768,70.1209999 18.1727509,70.2733113 C17.895929,70.751211 17.2841063,70.9142167 16.8062066,70.6373949 L7.84638183,65.4474445 C4.75930645,63.6592658 2.85868536,60.3618842 2.85868536,56.7943056 L2.85868536,27.6752132 Z M22.6681724,73.4615405 L22.6681724,33.9626921 C22.6681724,33.6045063 22.859746,33.2736755 23.1704041,33.095382 L37.6035113,24.8119056 C37.9131026,24.6342243 38.2939303,24.6350398 38.6027579,24.8140454 L53.0408093,33.1827687 C53.349377,33.3616237 53.539331,33.6912835 53.539331,34.0479389 L53.539331,73.4650954 C53.539331,73.8227684 53.3483007,74.1532072 53.038343,74.3316904 L48.4938393,76.9485556 C48.015232,77.2241523 47.4038289,77.0595799 47.1282321,76.5809726 C47.0408302,76.4291886 46.9948272,76.2571105 46.9948272,76.0819606 L46.9948272,56.7348024 C46.9948272,56.1825177 46.5471119,55.7348024 45.9948272,55.7348024 C45.8185309,55.7348024 45.645368,55.7814092 45.4928888,55.8698991 L38.6258634,59.8551114 C38.3148196,60.0356226 37.930803,60.0352135 37.6201446,59.8540398 L30.797729,55.8752572 C30.3206479,55.597027 29.7083471,55.7582275 29.4301169,56.2353086 C29.3409382,56.3882233 29.2939487,56.5620699 29.2939487,56.739089 L29.2939487,76.0925321 C29.2939487,76.6448168 28.8462334,77.0925321 28.2939487,77.0925321 C28.1206025,77.0925321 27.9502334,77.0474712 27.7995544,76.9617699 L23.1737781,74.3307783 C22.8612221,74.1530065 22.6681724,73.8211154 22.6681724,73.4615405 Z M73.3729242,26.92075 L73.3729242,31.42772 C73.3729242,31.7828439 73.1845848,32.1113282 72.8781089,32.2907313 L65.0421383,36.8777079 C64.7356625,37.0571111 64.547323,37.3855953 64.547323,37.7407192 L64.547323,42.9859882 C64.547323,43.538273 64.9950383,43.9859882 65.547323,43.9859882 C65.7222196,43.9859882 65.8940577,43.9401182 66.0456874,43.8529559 L71.8745599,40.5023097 C72.353373,40.2270707 72.9646529,40.3921 73.2398919,40.8709131 C73.3270541,41.0225428 73.3729242,41.1943808 73.3729242,41.3692774 L73.3729242,56.7845798 C73.3729242,60.3549281 71.4693758,63.6544313 68.3785173,65.4416023 L59.4747524,70.5898648 C58.9966382,70.8663161 58.3849421,70.702836 58.1084908,70.2247218 C58.0205147,70.0725697 57.9741931,69.8999183 57.9741931,69.7241625 L57.9741931,64.4135795 C57.9741931,64.0559383 58.1651896,63.7255238 58.4751037,63.5470289 L66.2851086,59.0488606 C66.5950228,58.8703657 66.7860193,58.5399512 66.7860193,58.18231 L66.7860193,52.8504659 C66.7860193,52.2981811 66.338304,51.8504659 65.7860193,51.8504659 C65.6103745,51.8504659 65.4378281,51.896729 65.2857432,51.9845999 L59.4744691,55.3422108 C58.9962645,55.6185057 58.3846219,55.4548255 58.1083271,54.9766209 C58.0204562,54.8245361 57.9741931,54.6519896 57.9741931,54.4763449 L57.9741931,31.4953288 C57.9741931,31.1384612 57.784015,30.8086389 57.4751575,30.629861 L43.936798,22.7933643 C43.4588132,22.5166893 43.2956195,21.9049167 43.5722945,21.426932 C43.6599664,21.2754696 43.7858522,21.1496674 43.9373728,21.062096 L57.4740507,13.238569 C57.7835173,13.0597127 58.164916,13.059631 58.4744592,13.2383548 L68.9732856,19.3001604 C71.6958006,20.8720843 73.3729242,23.7770208 73.3729242,26.92075 Z" id="color-copy-3" fill="#FFFFFF" style="mix-blend-mode: multiply;" mask="url(#mask-5)"></path>
            </g>
        </g>
    </g>
</svg>